<svg width="280" height="40" viewBox="0 0 280 40" fill="none" xmlns="http://www.w3.org/2000/svg">
<path d="M191.379 13.6784H196.483V30.506H191.379V13.6784ZM186.345 21.9542C185.793 21.6094 185.172 21.2646 184.552 21.0577C183.931 20.8508 183.241 20.6439 182.621 20.506C182 20.368 181.379 20.2301 180.828 20.0232C180.276 19.8853 179.862 19.6784 179.517 19.4715C179.172 19.2646 179.034 18.9197 179.034 18.5749C179.034 18.2991 179.103 18.0232 179.241 17.8853C179.379 17.6784 179.586 17.5404 179.862 17.4025C180.138 17.2646 180.483 17.2646 180.896 17.2646C181.655 17.2646 182.207 17.4715 182.621 17.8163C183.034 18.1611 183.31 18.6439 183.379 19.1956H188.069C187.931 18.0922 187.586 17.0577 187.034 16.2301C186.483 15.4025 185.655 14.7129 184.69 14.2301C183.655 13.7473 182.414 13.4715 180.965 13.4715C179.517 13.4715 178.276 13.6784 177.241 14.1611C176.207 14.6439 175.448 15.2646 174.896 16.0232C174.345 16.7818 174.069 17.6784 174.069 18.6439C174.069 19.5404 174.207 20.2301 174.552 20.8508C174.896 21.4715 175.31 21.9542 175.862 22.2991C176.414 22.6439 176.965 22.9197 177.655 23.1266C178.276 23.3335 178.965 23.5404 179.655 23.6784C180.345 23.8163 180.896 23.9542 181.448 24.0922C182 24.2301 182.414 24.437 182.759 24.6439C183.103 24.8508 183.241 25.1956 183.241 25.5404C183.241 25.8163 183.172 26.0232 182.965 26.2301C182.827 26.437 182.552 26.5749 182.276 26.7128C182 26.8508 181.586 26.9197 181.103 26.9197C180.414 26.9197 179.793 26.7128 179.31 26.368C178.827 26.0232 178.552 25.5404 178.483 24.9197H173.448C173.517 26.0232 173.862 26.9887 174.552 27.8163C175.172 28.7128 176.069 29.3335 177.241 29.8853C178.345 30.368 179.655 30.6439 181.172 30.6439C182.552 30.6439 183.793 30.437 184.827 29.9542C185.862 29.4715 186.621 28.9197 187.172 28.0922C187.724 27.3335 188 26.437 188 25.5404C188 24.6439 187.793 23.8853 187.448 23.2646C187.379 22.7818 186.896 22.2991 186.345 21.9542ZM137.931 14.437C138.759 13.9542 139.655 13.6784 140.759 13.6784C141.448 13.6784 142.069 13.7473 142.621 13.9542C143.172 14.1611 143.724 14.437 144.138 14.8508C144.621 15.2646 144.965 15.7473 145.241 16.368H150.828C150.414 14.8508 149.724 13.5404 148.828 12.437C147.862 11.3335 146.759 10.506 145.379 9.88527C144 9.26458 142.483 8.98872 140.828 8.98872C139.241 8.98872 137.793 9.26458 136.552 9.74734C135.241 10.2991 134.138 10.9887 133.172 11.9542C132.207 12.9197 131.517 14.0922 130.965 15.4025C130.483 16.7129 130.207 18.1611 130.207 19.7473C130.207 21.3335 130.483 22.7818 130.965 24.0922C131.448 25.4025 132.207 26.5749 133.172 27.5404C134.138 28.506 135.241 29.2646 136.552 29.8163C137.862 30.368 139.31 30.6439 140.828 30.6439C142.552 30.6439 144.069 30.368 145.379 29.7473C146.759 29.1266 147.862 28.2991 148.828 27.1956C149.793 26.0922 150.483 24.7818 150.828 23.2646H145.241C144.965 23.8853 144.621 24.437 144.138 24.8508C143.655 25.2646 143.172 25.5404 142.621 25.7473C142.069 25.9542 141.448 26.0232 140.759 26.0232C139.724 26.0232 138.759 25.7473 137.931 25.2646C137.103 24.7818 136.483 24.0922 136 23.1266C135.517 22.2301 135.31 21.1266 135.31 19.8163C135.31 18.5749 135.517 17.4715 136 16.506C136.483 15.6094 137.103 14.9197 137.931 14.437ZM165.724 13.6784H170.828V30.506H165.724V28.0922C165.448 28.5749 165.034 28.9887 164.483 29.4025C164 29.8163 163.379 30.0922 162.69 30.368C162 30.5749 161.241 30.7128 160.414 30.7128C159.034 30.7128 157.793 30.368 156.69 29.6094C155.586 28.9197 154.69 27.8853 154 26.5749C153.379 25.2646 153.034 23.7473 153.034 21.9542C153.034 20.1611 153.379 18.6439 154 17.3335C154.621 16.0232 155.517 15.0577 156.69 14.368C157.793 13.6784 159.103 13.3335 160.483 13.3335C161.31 13.3335 162.069 13.4715 162.759 13.6784C163.448 13.8853 164 14.2301 164.483 14.5749C164.965 14.9887 165.379 15.4025 165.724 15.8853V13.6784ZM165.724 22.0922C165.724 21.1956 165.517 20.437 165.172 19.8163C164.828 19.1956 164.345 18.7129 163.793 18.368C163.241 18.0232 162.621 17.8853 161.931 17.8853C161.31 17.8853 160.69 18.0232 160.069 18.368C159.517 18.7129 159.034 19.1266 158.69 19.7473C158.345 20.368 158.138 21.1266 158.138 22.0232C158.138 22.9197 158.345 23.6784 158.69 24.368C159.034 24.9887 159.517 25.4715 160.069 25.8163C160.621 26.1611 161.241 26.2991 161.931 26.2991C162.621 26.2991 163.241 26.1611 163.793 25.8163C164.345 25.4715 164.828 24.9887 165.172 24.368C165.517 23.7473 165.724 22.9887 165.724 22.0922ZM194 6.29906C193.103 6.29906 192.345 6.57492 191.793 7.12665C191.241 7.67837 190.965 8.29906 190.965 9.12665C190.965 9.88527 191.241 10.5749 191.793 11.1266C192.345 11.6784 193.103 11.9542 194 11.9542C194.896 11.9542 195.586 11.6784 196.207 11.1266C196.759 10.5749 197.034 9.95423 197.034 9.12665C197.034 8.36803 196.759 7.67837 196.207 7.12665C195.586 6.57492 194.896 6.29906 194 6.29906ZM235.931 17.4715C236.69 18.7818 237.103 20.2991 237.103 22.0922C237.103 23.8853 236.69 25.4025 235.931 26.7128C235.172 28.0232 234.069 28.9887 232.759 29.7473C231.448 30.437 229.931 30.7818 228.276 30.7818C226.621 30.7818 225.172 30.437 223.862 29.7473C222.552 29.0577 221.517 28.0232 220.759 26.7128C220 25.4025 219.586 23.8853 219.586 22.0922C219.586 20.2991 220 18.7818 220.759 17.4715C221.517 16.1611 222.552 15.1956 223.931 14.506C225.241 13.8163 226.759 13.4715 228.414 13.4715C230.069 13.4715 231.517 13.8163 232.828 14.506C234.069 15.1956 235.172 16.1611 235.931 17.4715ZM231.862 22.0922C231.862 21.1266 231.724 20.2991 231.379 19.6784C231.034 19.0577 230.621 18.5749 230.069 18.2991C229.517 18.0232 228.965 17.8163 228.345 17.8163C227.724 17.8163 227.103 17.9542 226.621 18.2991C226.138 18.6439 225.655 19.0577 225.31 19.6784C224.965 20.2991 224.828 21.1266 224.828 22.0922C224.828 23.0577 224.965 23.8853 225.31 24.506C225.655 25.1266 226.069 25.6094 226.552 25.8853C227.103 26.2301 227.655 26.368 228.276 26.368C228.896 26.368 229.517 26.2301 230.069 25.8853C230.621 25.5404 231.034 25.1266 231.379 24.506C231.724 23.8163 231.862 23.0577 231.862 22.0922ZM213.862 14.2991C212.896 13.7473 211.724 13.4715 210.414 13.4715C209.448 13.4715 208.552 13.6094 207.793 13.9542C207.034 14.2991 206.345 14.7129 205.793 15.2646C205.586 15.4715 205.448 15.6784 205.31 15.8853V13.6784H200.207V30.506H205.31V21.3335C205.31 20.506 205.448 19.8853 205.724 19.3335C206 18.7818 206.345 18.437 206.896 18.0922C207.379 17.8163 207.931 17.6784 208.621 17.6784C209.586 17.6784 210.414 17.9542 211.034 18.5749C211.655 19.1956 211.931 20.0922 211.931 21.2646V30.437H216.965V20.6439C216.965 19.1266 216.69 17.8163 216.138 16.7818C215.586 15.6784 214.828 14.8508 213.862 14.2991ZM241.379 26.6439C240.759 26.6439 240.276 26.8508 239.862 27.1956C239.448 27.5404 239.31 28.0232 239.31 28.5749C239.31 29.1266 239.517 29.5404 239.862 29.9542C240.276 30.2991 240.759 30.506 241.379 30.506C242 30.506 242.483 30.2991 242.828 29.9542C243.241 29.6094 243.379 29.1266 243.379 28.5749C243.379 28.0232 243.172 27.6094 242.828 27.1956C242.483 26.8508 242 26.6439 241.379 26.6439ZM99.1723 24.2991L95.2413 13.6784H89.5861L96.4137 29.9542L92.5516 38.506H97.9999L108.552 13.6784H103.034L99.1723 24.2991ZM82.6206 22.5749L73.9309 9.26458H68.8275V30.506H73.9309V17.2646L82.6206 30.437H87.7241V9.26458H82.6206V22.5749ZM122.138 13.6784H127.241V30.506H122.138V28.0922C121.862 28.5749 121.448 28.9887 120.896 29.4025C120.414 29.8163 119.793 30.0922 119.103 30.368C118.414 30.5749 117.655 30.7128 116.828 30.7128C115.448 30.7128 114.207 30.368 113.103 29.6094C112 28.9197 111.103 27.8853 110.414 26.5749C109.793 25.2646 109.448 23.7473 109.448 21.9542C109.448 20.1611 109.793 18.6439 110.414 17.3335C111.034 16.0232 111.931 15.0577 113.103 14.368C114.207 13.6784 115.517 13.3335 116.896 13.3335C117.724 13.3335 118.483 13.4715 119.172 13.6784C119.862 13.8853 120.414 14.2301 120.896 14.5749C121.379 14.9887 121.793 15.4025 122.138 15.8853V13.6784ZM122.138 22.0922C122.138 21.1956 121.931 20.437 121.586 19.8163C121.241 19.1956 120.759 18.7129 120.207 18.368C119.655 18.0232 119.034 17.8853 118.345 17.8853C117.724 17.8853 117.103 18.0232 116.483 18.368C115.931 18.7129 115.448 19.1266 115.103 19.7473C114.759 20.368 114.552 21.1266 114.552 22.0232C114.552 22.9197 114.759 23.6784 115.103 24.368C115.448 24.9887 115.931 25.4715 116.483 25.8163C117.034 26.1611 117.655 26.2991 118.345 26.2991C119.034 26.2991 119.655 26.1611 120.207 25.8163C120.759 25.4715 121.241 24.9887 121.586 24.368C122 23.7473 122.138 22.9887 122.138 22.0922ZM279.586 21.8163C279.586 22.0922 279.586 22.2991 279.586 22.5749C279.586 22.8508 279.517 23.0577 279.448 23.3335H267.724C267.793 23.9542 267.931 24.506 268.138 24.9197C268.414 25.4715 268.828 25.8853 269.31 26.1611C269.793 26.437 270.345 26.5749 270.965 26.5749C271.724 26.5749 272.345 26.437 272.759 26.0922C273.172 25.7473 273.517 25.4025 273.724 24.9197H279.172C278.896 26.0232 278.414 26.9887 277.655 27.8853C276.896 28.7818 276 29.4715 274.896 29.9542C273.793 30.437 272.552 30.7128 271.172 30.7128C269.517 30.7128 268.069 30.368 266.759 29.6784C265.448 28.9887 264.483 27.9542 263.724 26.6439C262.965 25.3335 262.621 23.8163 262.621 22.0232C262.621 20.2301 262.965 18.7129 263.724 17.4025C264.414 16.0922 265.448 15.1266 266.69 14.437C268 13.7473 269.448 13.4025 271.103 13.4025C272.759 13.4025 274.207 13.7473 275.448 14.437C276.69 15.1266 277.724 16.0922 278.414 17.3335C279.241 18.5749 279.586 20.0922 279.586 21.8163ZM274.414 20.437C274.414 19.9542 274.345 19.5404 274.138 19.1956C274 18.8508 273.724 18.506 273.448 18.2991C273.172 18.0232 272.828 17.8853 272.414 17.7473C272 17.6094 271.586 17.5404 271.172 17.5404C270.483 17.5404 269.931 17.6784 269.448 18.0232C268.965 18.2991 268.552 18.7818 268.276 19.3335C268.069 19.6784 268 20.0922 267.931 20.506H274.414V20.437ZM258.69 21.9542C258.138 21.6094 257.517 21.2646 256.896 21.0577C256.276 20.8508 255.586 20.6439 254.965 20.506C254.345 20.368 253.724 20.2301 253.172 20.0232C252.621 19.8853 252.207 19.6784 251.862 19.4715C251.517 19.2646 251.379 18.9197 251.379 18.5749C251.379 18.2991 251.448 18.0232 251.586 17.8853C251.724 17.6784 251.931 17.5404 252.207 17.4025C252.483 17.2646 252.828 17.2646 253.241 17.2646C254 17.2646 254.552 17.4715 254.965 17.8163C255.379 18.1611 255.655 18.6439 255.724 19.1956H260.414C260.276 18.0922 259.931 17.0577 259.379 16.2301C258.828 15.4025 258 14.7129 257.034 14.2301C256 13.7473 254.759 13.4715 253.31 13.4715C251.862 13.4715 250.621 13.6784 249.586 14.1611C248.552 14.6439 247.793 15.2646 247.241 16.0232C246.69 16.7818 246.414 17.6784 246.414 18.6439C246.414 19.5404 246.552 20.2301 246.896 20.8508C247.241 21.4715 247.655 21.9542 248.207 22.2991C248.759 22.6439 249.31 22.9197 250 23.1266C250.621 23.3335 251.31 23.5404 252 23.6784C252.69 23.8163 253.241 23.9542 253.793 24.0922C254.345 24.2301 254.759 24.437 255.103 24.6439C255.448 24.8508 255.586 25.1956 255.586 25.5404C255.586 25.8163 255.517 26.0232 255.31 26.2301C255.172 26.437 254.896 26.5749 254.621 26.7128C254.345 26.8508 253.931 26.9197 253.448 26.9197C252.759 26.9197 252.138 26.7128 251.655 26.368C251.172 26.0232 250.896 25.5404 250.828 24.9197H245.793C245.862 26.0232 246.207 26.9887 246.896 27.8163C247.517 28.7128 248.414 29.3335 249.586 29.8853C250.69 30.368 252 30.6439 253.517 30.6439C254.896 30.6439 256.138 30.437 257.172 29.9542C258.207 29.4715 258.965 28.9197 259.517 28.0922C260.069 27.3335 260.345 26.437 260.345 25.5404C260.345 24.6439 260.138 23.8853 259.793 23.2646C259.724 22.7818 259.241 22.2991 258.69 21.9542ZM36.8275 11.4025C40.4137 11.4025 43.5172 13.6094 44.7585 16.7818H55.793C54.2758 6.91975 45.4482 -0.390591 35.3103 0.0921674C34.5516 0.0921674 33.724 0.0921674 32.9654 0.161133C31.3103 0.299064 29.6551 0.574926 28.0689 1.05768C25.793 1.67837 23.6551 2.43699 21.5172 3.47148C20.4137 3.95424 19.3792 4.50596 18.3447 5.12665C17.6551 5.54044 16.9654 5.95423 16.2758 6.43699C16.3447 6.50596 16.3447 6.50596 16.3447 6.50596C17.793 6.29906 19.2413 6.2301 20.6896 6.29906C22.0689 6.29906 23.5172 6.64389 24.8275 7.33354C25.4482 7.60941 26.0689 8.0232 26.6896 8.36803C27.3792 8.85079 28.0689 9.40251 28.8275 9.95423C28.2758 9.95423 27.862 9.95423 27.4482 9.95423C26.8965 9.95423 26.4137 9.95423 25.862 10.0232C23.3792 10.2991 21.1034 11.4025 18.9654 12.5749C17.724 13.2646 16.4827 14.0232 15.3103 14.8508C13.9999 15.6784 12.6896 16.368 11.2413 17.0577C9.17232 18.0232 6.96543 18.2991 4.68956 18.1611C3.65508 18.0922 2.6206 17.6784 1.65508 17.2646C1.24129 17.1266 0.896459 16.8508 0.482666 16.5749C0.551632 16.7818 0.620597 16.9197 0.689563 16.9887C0.896459 17.1956 1.10336 17.4715 1.31025 17.6784C2.55163 19.2646 4.13784 20.437 5.93094 21.4025C7.10336 22.0232 8.4137 22.5749 9.72405 22.8508C10.8965 23.1266 11.9999 23.2646 13.2413 23.2646C14.4827 23.2646 15.6551 23.0577 16.8275 22.8508C17.724 22.7129 18.6206 22.506 19.5861 22.368C20.7585 22.2301 21.9999 22.368 23.1034 22.9887C23.724 23.3335 24.2068 23.7473 24.6206 24.368C25.3792 25.6094 24.8965 27.4025 23.862 28.437C22.9654 29.2646 21.9309 29.6784 20.7585 29.8163C20.2758 29.8853 19.862 29.8853 19.3103 29.9542C19.5172 30.2991 19.6551 30.5749 19.862 30.8508C19.862 30.9887 19.9309 31.1266 20.0689 31.3335C23.862 36.7128 30.3447 40.0922 37.3792 39.6784C46.8275 39.1266 54.4137 32.0232 55.793 22.9887H44.7585C43.5172 26.1611 40.4827 28.368 36.8275 28.368C32.1378 28.368 28.2758 24.5749 28.2758 19.8853C28.2758 15.1956 32.1378 11.4025 36.8275 11.4025Z" fill="#7ECD26"/>
</svg>
